<?xml version="1.0" encoding="UTF-8"?>
<!--Generator: Apple Native CoreSVG 326-->
<!DOCTYPE svg
PUBLIC "-//W3C//DTD SVG 1.1//EN"
       "http://www.w3.org/Graphics/SVG/1.1/DTD/svg11.dtd">
<svg version="1.1" xmlns="http://www.w3.org/2000/svg" xmlns:xlink="http://www.w3.org/1999/xlink" viewBox="0 0 58.9219 59.1328" width="16" height="16">
 <g>
  <rect height="59.1328" opacity="0" width="58.9219" x="0" y="0"/>
  <path d="M0 23.7188C0 36.7734 10.6406 47.4141 23.7188 47.4141C28.9922 47.4141 33.8438 45.6797 37.7812 42.75L53.2266 58.2188C53.8125 58.8281 54.6328 59.1328 55.4766 59.1328C57.3281 59.1328 58.5703 57.7266 58.5703 55.9688C58.5703 55.1016 58.2656 54.3516 57.7031 53.7656L42.3281 38.3203C45.5156 34.3125 47.4375 29.2266 47.4375 23.7188C47.4375 10.6406 36.7969 0 23.7188 0C10.6406 0 0 10.6406 0 23.7188ZM4.38281 23.7188C4.38281 13.0547 13.0547 4.38281 23.7188 4.38281C34.3828 4.38281 43.0312 13.0547 43.0312 23.7188C43.0312 34.3594 34.3828 43.0312 23.7188 43.0312C13.0547 43.0312 4.38281 34.3594 4.38281 23.7188Z" fill="#211c1b" fill-opacity="0.85"/>
 </g>
</svg>
