<svg width="56" height="76" viewBox="0 0 56 76" fill="none" xmlns="http://www.w3.org/2000/svg">
<path d="M46.2921 29.6386C54.639 39.3215 52.7555 53.6493 42.2335 61.1654C38.6911 63.6959 34.7183 65.2961 30.6305 66.6621C27.5206 67.7013 24.5683 69.0245 22.0925 71.2147C21.207 71.9981 20.4032 72.8756 19.5916 73.7377C18.5997 74.7913 17.4609 75.3227 16.0199 74.7915C14.625 74.2773 14.0329 73.1588 14.0207 71.7719C13.9973 69.107 12.9086 66.8194 11.4516 64.7163C9.94627 62.5435 8.23719 60.5108 6.63138 58.4061C2.44238 52.9158 0.38286 46.7731 1.16243 39.8612C2.07444 31.7751 6.54743 26.1747 13.7568 22.603C16.0291 21.4772 18.4505 20.8078 20.9755 20.5156C21.3118 20.4766 21.6431 20.3939 21.9857 20.3298C21.9099 18.7086 20.9765 17.7784 19.7696 17.034C15.9064 14.6513 14.8374 11.2633 16.6266 7.07036C19.0751 1.3321 24.8983 -0.521344 30.2267 2.75808C30.908 3.17738 31.5469 3.67129 32.1743 4.16942C33.6222 5.31914 34.4734 6.76442 34.3532 8.67492C34.3345 8.9721 34.3934 9.27411 34.4164 9.57388C34.5104 9.63466 34.6043 9.69544 34.6982 9.75621C35.5099 8.81295 36.319 7.86752 37.1339 6.92698C38.1301 5.7772 38.9475 4.36392 40.1665 3.53748C43.0738 1.56645 46.4155 0.698969 49.9368 1.09286C53.4883 1.49013 55.3888 4.13942 54.9333 8.11644C54.5754 11.2417 53.6776 14.2263 51.739 16.8383C49.8724 19.3533 47.5121 20.8498 44.3189 20.8822C41.9711 20.906 40.2775 21.9839 39.2206 23.7254C41.6137 25.7221 43.928 27.6531 46.2921 29.6386ZM32.3978 13.4887C32.3826 12.3001 32.3674 11.1116 32.4105 9.76039C32.7638 7.73499 32.5111 5.9525 30.3552 4.78539C28.5812 4.0876 26.8322 3.31504 25.024 2.71985C23.9264 2.35854 22.8284 2.68642 21.8173 3.28396C18.2191 5.41032 16.6004 9.52044 17.7557 13.5473C17.988 14.3572 18.3452 14.7826 19.2576 14.7923C20.9688 14.8105 22.2665 15.6911 23.154 17.0779C23.631 17.8233 23.8562 18.7253 24.2268 19.5423C24.355 19.8248 24.5635 20.2736 24.762 20.2883C25.7875 20.3639 26.8217 20.3234 27.9311 20.3234C27.8834 19.7158 27.8699 19.1976 27.7986 18.6873C27.2236 14.5765 25.5734 10.8925 23.2742 7.4673C23.0035 7.06407 22.6958 6.66717 22.5279 6.22163C22.4424 5.99469 22.5487 5.58869 22.7214 5.40982C22.8432 5.28366 23.2986 5.30331 23.4718 5.43335C23.8832 5.74219 24.2556 6.12425 24.5731 6.53123C27.0403 9.69398 28.8459 13.2019 30.0514 17.178C30.3956 18.4541 30.7398 19.7302 31.14 21.214C32.1694 20.3447 32.6501 19.4689 32.6416 18.4463C32.6284 16.8578 32.4672 15.2704 32.3978 13.4887ZM25.2378 51.5229C29.873 54.1127 33.6246 57.5989 36.1982 62.4651C37.9273 61.331 39.6033 60.3771 41.116 59.2132C46.3864 55.158 49.0911 49.7123 49.0321 43.1413C48.9768 36.9856 46.1538 32.0096 41.1882 28.3741C35.8157 24.4408 29.6458 22.7671 23.0355 22.922C10.1538 23.2239 1.63062 33.4162 3.56632 46.0241C3.69195 46.8424 3.86304 47.3631 4.92082 47.2296C12.1304 46.3193 18.8022 48.0236 25.2378 51.5229ZM32.712 61.2181C32.2689 60.6368 31.879 60.0047 31.3745 59.4819C24.5413 52.4012 16.1 49.2228 6.31883 49.3583C5.76046 49.366 5.20562 49.6252 4.63638 49.7706C5.92392 53.3971 7.85025 56.4731 10.4601 59.1139C10.7359 59.3929 11.2344 59.5807 11.6357 59.5917C17.2369 59.7444 22.1405 61.6399 26.3923 65.2673C26.6832 65.5154 27.2953 65.6197 27.6688 65.5045C29.3696 64.9801 31.0402 64.3579 32.7176 63.7596C33.0655 63.6355 33.3963 63.4639 33.8456 63.2652C33.4559 62.5556 33.1243 61.9516 32.712 61.2181ZM43.7739 9.72703C45.548 8.55118 47.3015 7.34219 49.1145 6.22919C49.4518 6.02215 50.0288 6.20113 50.4951 6.20195C50.3017 6.59941 50.2108 7.12968 49.896 7.36992C48.8723 8.15118 47.7737 8.83694 46.6915 9.54051C42.1492 12.4936 38.1225 16.0101 34.8071 20.2998C34.4398 20.775 34.1632 21.3194 33.8085 21.8896C34.9213 22.3076 35.8589 22.6598 36.8201 23.0208C36.9523 22.8346 37.0575 22.6987 37.1497 22.5546C38.9557 19.7326 41.4785 18.4001 44.8734 18.8719C46.5129 19.0997 47.7985 18.3964 48.9249 17.3148C52.0182 14.3446 53.3914 10.7493 52.8909 6.47467C52.6228 4.18428 51.4218 3.008 49.0838 2.81301C46.7007 2.61426 44.4233 3.01576 42.2456 4.01701C40.9813 4.59831 39.8994 5.29789 39.5834 6.78976C39.5022 7.17325 39.2454 7.55625 38.9766 7.85787C37.8677 9.1022 36.755 10.3463 35.5839 11.532C34.0123 13.1233 34.1561 14.998 34.4665 17.0708C36.0221 15.7338 37.425 14.4449 38.9174 13.2683C40.45 12.0599 42.07 10.9613 43.7739 9.72703ZM20.9948 64.0627C18.2964 62.7404 15.5042 61.8103 12.1652 61.8812C14.5475 64.6454 15.9874 67.4789 15.9002 70.9667C15.8868 71.5015 16.6917 72.24 17.2928 72.56C18.04 72.958 18.6114 72.3437 19.1276 71.7516C19.97 70.7852 20.8357 69.8173 21.8169 68.9986C22.7131 68.2508 23.7756 67.6999 25.0298 66.8914C23.6585 65.9237 22.3944 65.0315 20.9948 64.0627Z" fill="#FF3C1A" stroke="#FF3C1A"/>
</svg>
